<?xml version="1.0" encoding="UTF-8" standalone="no"?>
<!DOCTYPE svg PUBLIC "-//W3C//DTD SVG 1.1//EN"
 "http://www.w3.org/Graphics/SVG/1.1/DTD/svg11.dtd">
<!-- Generated by graphviz version 2.47.3 (20210619.1520)
 -->
<!-- Title: dependencies Pages: 1 -->
<svg width="484pt" height="174pt"
 viewBox="0.00 0.00 484.00 173.80" xmlns="http://www.w3.org/2000/svg" xmlns:xlink="http://www.w3.org/1999/xlink">
<g id="graph0" class="graph" transform="scale(1 1) rotate(0) translate(4 169.8)">
<title>dependencies</title>
<polygon fill="white" stroke="transparent" points="-4,4 -4,-169.8 480,-169.8 480,4 -4,4"/>
<text text-anchor="middle" x="238" y="-8.2" font-family="sans-serif" font-size="14.00">dependencies</text>
<g id="clust1" class="cluster">
<title>cluster_TeamsModule</title>
<polygon fill="none" stroke="black" stroke-dasharray="1,5" points="8,-32.8 8,-157.8 468,-157.8 468,-32.8 8,-32.8"/>
</g>
<g id="clust2" class="cluster">
<title>cluster_TeamsModule_declarations</title>
<polygon fill="none" stroke="black" points="16,-40.8 16,-92.8 460,-92.8 460,-40.8 16,-40.8"/>
</g>
<!-- ArtiBuildComponent -->
<g id="node1" class="node">
<title>ArtiBuildComponent</title>
<polygon fill="#ffffb3" stroke="black" points="452.5,-84.8 317.5,-84.8 317.5,-48.8 452.5,-48.8 452.5,-84.8"/>
<text text-anchor="middle" x="385" y="-62.6" font-family="Times,serif" font-size="14.00">ArtiBuildComponent</text>
</g>
<!-- TeamsModule -->
<g id="node4" class="node">
<title>TeamsModule</title>
<polygon fill="#8dd3c7" stroke="black" points="278.37,-149.8 275.37,-153.8 254.37,-153.8 251.37,-149.8 181.63,-149.8 181.63,-113.8 278.37,-113.8 278.37,-149.8"/>
<text text-anchor="middle" x="230" y="-127.6" font-family="Times,serif" font-size="14.00">TeamsModule</text>
</g>
<!-- ArtiBuildComponent&#45;&gt;TeamsModule -->
<g id="edge1" class="edge">
<title>ArtiBuildComponent&#45;&gt;TeamsModule</title>
<path fill="none" stroke="black" d="M385,-84.91C385,-104.14 385,-131.8 385,-131.8 385,-131.8 288.62,-131.8 288.62,-131.8"/>
<polygon fill="black" stroke="black" points="288.62,-128.3 278.62,-131.8 288.62,-135.3 288.62,-128.3"/>
</g>
<!-- BuildCardComponent -->
<g id="node2" class="node">
<title>BuildCardComponent</title>
<polygon fill="#ffffb3" stroke="black" points="299.66,-84.8 160.34,-84.8 160.34,-48.8 299.66,-48.8 299.66,-84.8"/>
<text text-anchor="middle" x="230" y="-62.6" font-family="Times,serif" font-size="14.00">BuildCardComponent</text>
</g>
<!-- BuildCardComponent&#45;&gt;TeamsModule -->
<g id="edge2" class="edge">
<title>BuildCardComponent&#45;&gt;TeamsModule</title>
<path fill="none" stroke="black" d="M230,-84.91C230,-84.91 230,-103.79 230,-103.79"/>
<polygon fill="black" stroke="black" points="226.5,-103.79 230,-113.79 233.5,-103.79 226.5,-103.79"/>
</g>
<!-- TeamsComponent -->
<g id="node3" class="node">
<title>TeamsComponent</title>
<polygon fill="#ffffb3" stroke="black" points="142.15,-84.8 23.85,-84.8 23.85,-48.8 142.15,-48.8 142.15,-84.8"/>
<text text-anchor="middle" x="83" y="-62.6" font-family="Times,serif" font-size="14.00">TeamsComponent</text>
</g>
<!-- TeamsComponent&#45;&gt;TeamsModule -->
<g id="edge3" class="edge">
<title>TeamsComponent&#45;&gt;TeamsModule</title>
<path fill="none" stroke="black" d="M83,-84.91C83,-104.14 83,-131.8 83,-131.8 83,-131.8 171.46,-131.8 171.46,-131.8"/>
<polygon fill="black" stroke="black" points="171.46,-135.3 181.46,-131.8 171.46,-128.3 171.46,-135.3"/>
</g>
</g>
</svg>
