<?xml version="1.0" encoding="UTF-8" standalone="no"?>
<!DOCTYPE svg PUBLIC "-//W3C//DTD SVG 1.1//EN"
 "http://www.w3.org/Graphics/SVG/1.1/DTD/svg11.dtd">
<!-- Generated by graphviz version 2.47.3 (20210619.1520)
 -->
<!-- Title: dependencies Pages: 1 -->
<svg width="462pt" height="174pt"
 viewBox="0.00 0.00 462.00 173.80" xmlns="http://www.w3.org/2000/svg" xmlns:xlink="http://www.w3.org/1999/xlink">
<g id="graph0" class="graph" transform="scale(1 1) rotate(0) translate(4 169.8)">
<title>dependencies</title>
<polygon fill="white" stroke="transparent" points="-4,4 -4,-169.8 458,-169.8 458,4 -4,4"/>
<text text-anchor="middle" x="227" y="-8.2" font-family="sans-serif" font-size="14.00">dependencies</text>
<g id="clust1" class="cluster">
<title>cluster_AbyssteamsModule</title>
<polygon fill="none" stroke="black" stroke-dasharray="1,5" points="8,-32.8 8,-157.8 446,-157.8 446,-32.8 8,-32.8"/>
</g>
<g id="clust4" class="cluster">
<title>cluster_AbyssteamsModule_imports</title>
<polygon fill="none" stroke="black" points="188,-40.8 188,-92.8 438,-92.8 438,-40.8 188,-40.8"/>
</g>
<g id="clust2" class="cluster">
<title>cluster_AbyssteamsModule_declarations</title>
<polygon fill="none" stroke="black" points="16,-40.8 16,-92.8 180,-92.8 180,-40.8 16,-40.8"/>
</g>
<!-- AbyssteamsComponent -->
<g id="node1" class="node">
<title>AbyssteamsComponent</title>
<polygon fill="#ffffb3" stroke="black" points="172.48,-84.8 23.52,-84.8 23.52,-48.8 172.48,-48.8 172.48,-84.8"/>
<text text-anchor="middle" x="98" y="-62.6" font-family="Times,serif" font-size="14.00">AbyssteamsComponent</text>
</g>
<!-- AbyssteamsModule -->
<g id="node2" class="node">
<title>AbyssteamsModule</title>
<polygon fill="#8dd3c7" stroke="black" points="307.7,-149.8 304.7,-153.8 283.7,-153.8 280.7,-149.8 180.3,-149.8 180.3,-113.8 307.7,-113.8 307.7,-149.8"/>
<text text-anchor="middle" x="244" y="-127.6" font-family="Times,serif" font-size="14.00">AbyssteamsModule</text>
</g>
<!-- AbyssteamsComponent&#45;&gt;AbyssteamsModule -->
<g id="edge1" class="edge">
<title>AbyssteamsComponent&#45;&gt;AbyssteamsModule</title>
<path fill="none" stroke="black" d="M172.72,-66.8C181.82,-66.8 187.98,-66.8 187.98,-66.8 187.98,-66.8 187.98,-103.69 187.98,-103.69"/>
<polygon fill="black" stroke="black" points="184.48,-103.69 187.98,-113.69 191.48,-103.69 184.48,-103.69"/>
</g>
<!-- CharactersModule -->
<g id="node3" class="node">
<title>CharactersModule</title>
<polygon fill="#8dd3c7" stroke="black" points="429.9,-84.8 426.9,-88.8 405.9,-88.8 402.9,-84.8 310.1,-84.8 310.1,-48.8 429.9,-48.8 429.9,-84.8"/>
<text text-anchor="middle" x="370" y="-62.6" font-family="Times,serif" font-size="14.00">CharactersModule</text>
</g>
<!-- CharactersModule&#45;&gt;AbyssteamsModule -->
<g id="edge2" class="edge">
<title>CharactersModule&#45;&gt;AbyssteamsModule</title>
<path fill="none" stroke="black" d="M310.04,-66.8C303.99,-66.8 300.02,-66.8 300.02,-66.8 300.02,-66.8 300.02,-103.69 300.02,-103.69"/>
<polygon fill="black" stroke="black" points="296.52,-103.69 300.02,-113.69 303.52,-103.69 296.52,-103.69"/>
</g>
<!-- TeamsModule -->
<g id="node4" class="node">
<title>TeamsModule</title>
<polygon fill="#8dd3c7" stroke="black" points="292.37,-84.8 289.37,-88.8 268.37,-88.8 265.37,-84.8 195.63,-84.8 195.63,-48.8 292.37,-48.8 292.37,-84.8"/>
<text text-anchor="middle" x="244" y="-62.6" font-family="Times,serif" font-size="14.00">TeamsModule</text>
</g>
<!-- TeamsModule&#45;&gt;AbyssteamsModule -->
<g id="edge3" class="edge">
<title>TeamsModule&#45;&gt;AbyssteamsModule</title>
<path fill="none" stroke="black" d="M244,-84.91C244,-84.91 244,-103.79 244,-103.79"/>
<polygon fill="black" stroke="black" points="240.5,-103.79 244,-113.79 247.5,-103.79 240.5,-103.79"/>
</g>
</g>
</svg>
