<?xml version="1.0" encoding="UTF-8" standalone="no"?>
<!DOCTYPE svg PUBLIC "-//W3C//DTD SVG 1.1//EN"
 "http://www.w3.org/Graphics/SVG/1.1/DTD/svg11.dtd">
<!-- Generated by graphviz version 2.47.3 (20210619.1520)
 -->
<!-- Title: dependencies Pages: 1 -->
<svg width="378pt" height="174pt"
 viewBox="0.00 0.00 378.00 173.80" xmlns="http://www.w3.org/2000/svg" xmlns:xlink="http://www.w3.org/1999/xlink">
<g id="graph0" class="graph" transform="scale(1 1) rotate(0) translate(4 169.8)">
<title>dependencies</title>
<polygon fill="white" stroke="transparent" points="-4,4 -4,-169.8 374,-169.8 374,4 -4,4"/>
<text text-anchor="middle" x="185" y="-8.2" font-family="sans-serif" font-size="14.00">dependencies</text>
<g id="clust1" class="cluster">
<title>cluster_CharactersModule</title>
<polygon fill="none" stroke="black" stroke-dasharray="1,5" points="8,-32.8 8,-157.8 362,-157.8 362,-32.8 8,-32.8"/>
</g>
<g id="clust2" class="cluster">
<title>cluster_CharactersModule_declarations</title>
<polygon fill="none" stroke="black" points="16,-40.8 16,-92.8 354,-92.8 354,-40.8 16,-40.8"/>
</g>
<!-- CharacterCardComponent -->
<g id="node1" class="node">
<title>CharacterCardComponent</title>
<polygon fill="#ffffb3" stroke="black" points="346.45,-84.8 183.55,-84.8 183.55,-48.8 346.45,-48.8 346.45,-84.8"/>
<text text-anchor="middle" x="265" y="-62.6" font-family="Times,serif" font-size="14.00">CharacterCardComponent</text>
</g>
<!-- CharactersModule -->
<g id="node3" class="node">
<title>CharactersModule</title>
<polygon fill="#8dd3c7" stroke="black" points="239.9,-149.8 236.9,-153.8 215.9,-153.8 212.9,-149.8 120.1,-149.8 120.1,-113.8 239.9,-113.8 239.9,-149.8"/>
<text text-anchor="middle" x="180" y="-127.6" font-family="Times,serif" font-size="14.00">CharactersModule</text>
</g>
<!-- CharacterCardComponent&#45;&gt;CharactersModule -->
<g id="edge1" class="edge">
<title>CharacterCardComponent&#45;&gt;CharactersModule</title>
<path fill="none" stroke="black" d="M211.61,-84.91C211.61,-84.91 211.61,-103.79 211.61,-103.79"/>
<polygon fill="black" stroke="black" points="208.11,-103.79 211.61,-113.79 215.11,-103.79 208.11,-103.79"/>
</g>
<!-- CharactersComponent -->
<g id="node2" class="node">
<title>CharactersComponent</title>
<polygon fill="#ffffb3" stroke="black" points="165.68,-84.8 24.32,-84.8 24.32,-48.8 165.68,-48.8 165.68,-84.8"/>
<text text-anchor="middle" x="95" y="-62.6" font-family="Times,serif" font-size="14.00">CharactersComponent</text>
</g>
<!-- CharactersComponent&#45;&gt;CharactersModule -->
<g id="edge2" class="edge">
<title>CharactersComponent&#45;&gt;CharactersModule</title>
<path fill="none" stroke="black" d="M142.95,-84.91C142.95,-84.91 142.95,-103.79 142.95,-103.79"/>
<polygon fill="black" stroke="black" points="139.45,-103.79 142.95,-113.79 146.45,-103.79 139.45,-103.79"/>
</g>
</g>
</svg>
