<?xml version="1.0" encoding="UTF-8" standalone="no"?>
<!DOCTYPE svg PUBLIC "-//W3C//DTD SVG 1.1//EN"
 "http://www.w3.org/Graphics/SVG/1.1/DTD/svg11.dtd">
<!-- Generated by graphviz version 2.47.3 (20210619.1520)
 -->
<!-- Title: dependencies Pages: 1 -->
<svg width="845pt" height="247pt"
 viewBox="0.00 0.00 845.00 246.80" xmlns="http://www.w3.org/2000/svg" xmlns:xlink="http://www.w3.org/1999/xlink">
<g id="graph0" class="graph" transform="scale(1 1) rotate(0) translate(4 242.8)">
<title>dependencies</title>
<polygon fill="white" stroke="transparent" points="-4,4 -4,-242.8 841,-242.8 841,4 -4,4"/>
<text text-anchor="middle" x="418.5" y="-8.2" font-family="sans-serif" font-size="14.00">dependencies</text>
<g id="clust1" class="cluster">
<title>cluster_AppModule</title>
<polygon fill="none" stroke="black" stroke-dasharray="1,5" points="8,-32.8 8,-230.8 829,-230.8 829,-32.8 8,-32.8"/>
</g>
<g id="clust5" class="cluster">
<title>cluster_AppModule_imports</title>
<polygon fill="none" stroke="black" points="279,-40.8 279,-92.8 821,-92.8 821,-40.8 279,-40.8"/>
</g>
<g id="clust7" class="cluster">
<title>cluster_AppModule_bootstrap</title>
<polygon fill="none" stroke="black" points="399,-170.8 399,-222.8 523,-222.8 523,-170.8 399,-170.8"/>
</g>
<g id="clust2" class="cluster">
<title>cluster_AppModule_declarations</title>
<polygon fill="none" stroke="black" points="16,-40.8 16,-92.8 271,-92.8 271,-40.8 16,-40.8"/>
</g>
<!-- AppComponent -->
<g id="node1" class="node">
<title>AppComponent</title>
<polygon fill="#ffffb3" stroke="black" points="262.94,-84.8 157.06,-84.8 157.06,-48.8 262.94,-48.8 262.94,-84.8"/>
<text text-anchor="middle" x="210" y="-62.6" font-family="Times,serif" font-size="14.00">AppComponent</text>
</g>
<!-- AppModule -->
<g id="node3" class="node">
<title>AppModule</title>
<polygon fill="#8dd3c7" stroke="black" points="502.66,-149.8 499.66,-153.8 478.66,-153.8 475.66,-149.8 419.34,-149.8 419.34,-113.8 502.66,-113.8 502.66,-149.8"/>
<text text-anchor="middle" x="461" y="-127.6" font-family="Times,serif" font-size="14.00">AppModule</text>
</g>
<!-- AppComponent&#45;&gt;AppModule -->
<g id="edge1" class="edge">
<title>AppComponent&#45;&gt;AppModule</title>
<path fill="none" stroke="black" d="M210,-84.91C210,-104.14 210,-131.8 210,-131.8 210,-131.8 409.27,-131.8 409.27,-131.8"/>
<polygon fill="black" stroke="black" points="409.27,-135.3 419.27,-131.8 409.27,-128.3 409.27,-135.3"/>
</g>
<!-- HomeComponent -->
<g id="node2" class="node">
<title>HomeComponent</title>
<polygon fill="#ffffb3" stroke="black" points="139.55,-84.8 24.45,-84.8 24.45,-48.8 139.55,-48.8 139.55,-84.8"/>
<text text-anchor="middle" x="82" y="-62.6" font-family="Times,serif" font-size="14.00">HomeComponent</text>
</g>
<!-- HomeComponent&#45;&gt;AppModule -->
<g id="edge2" class="edge">
<title>HomeComponent&#45;&gt;AppModule</title>
<path fill="none" stroke="black" d="M82,-85.09C82,-107.01 82,-140.8 82,-140.8 82,-140.8 408.99,-140.8 408.99,-140.8"/>
<polygon fill="black" stroke="black" points="408.99,-144.3 418.99,-140.8 408.99,-137.3 408.99,-144.3"/>
</g>
<!-- AppComponent  -->
<g id="node8" class="node">
<title>AppComponent </title>
<polygon fill="#80b1d3" stroke="black" points="515.44,-214.8 406.56,-214.8 406.56,-178.8 515.44,-178.8 515.44,-214.8"/>
<text text-anchor="middle" x="461" y="-192.6" font-family="Times,serif" font-size="14.00">AppComponent </text>
</g>
<!-- AppModule&#45;&gt;AppComponent  -->
<g id="edge8" class="edge">
<title>AppModule&#45;&gt;AppComponent </title>
<path fill="none" stroke="black" stroke-dasharray="1,5" d="M461,-149.91C461,-149.91 461,-168.79 461,-168.79"/>
<polygon fill="black" stroke="black" points="457.5,-168.79 461,-178.79 464.5,-168.79 457.5,-168.79"/>
</g>
<!-- AbyssteamsModule -->
<g id="node4" class="node">
<title>AbyssteamsModule</title>
<polygon fill="#8dd3c7" stroke="black" points="812.7,-84.8 809.7,-88.8 788.7,-88.8 785.7,-84.8 685.3,-84.8 685.3,-48.8 812.7,-48.8 812.7,-84.8"/>
<text text-anchor="middle" x="749" y="-62.6" font-family="Times,serif" font-size="14.00">AbyssteamsModule</text>
</g>
<!-- AbyssteamsModule&#45;&gt;AppModule -->
<g id="edge3" class="edge">
<title>AbyssteamsModule&#45;&gt;AppModule</title>
<path fill="none" stroke="black" d="M749,-85.09C749,-107.01 749,-140.8 749,-140.8 749,-140.8 512.88,-140.8 512.88,-140.8"/>
<polygon fill="black" stroke="black" points="512.88,-137.3 502.88,-140.8 512.88,-144.3 512.88,-137.3"/>
</g>
<!-- AppRoutingModule -->
<g id="node5" class="node">
<title>AppRoutingModule</title>
<polygon fill="#8dd3c7" stroke="black" points="667.27,-84.8 664.27,-88.8 643.27,-88.8 640.27,-84.8 538.73,-84.8 538.73,-48.8 667.27,-48.8 667.27,-84.8"/>
<text text-anchor="middle" x="603" y="-62.6" font-family="Times,serif" font-size="14.00">AppRoutingModule</text>
</g>
<!-- AppRoutingModule&#45;&gt;AppModule -->
<g id="edge4" class="edge">
<title>AppRoutingModule&#45;&gt;AppModule</title>
<path fill="none" stroke="black" d="M581.54,-84.83C581.54,-101.2 581.54,-122.8 581.54,-122.8 581.54,-122.8 512.82,-122.8 512.82,-122.8"/>
<polygon fill="black" stroke="black" points="512.82,-119.3 502.82,-122.8 512.82,-126.3 512.82,-119.3"/>
</g>
<!-- AppRoutingModule&#45;&gt;AppModule -->
<g id="edge5" class="edge">
<title>AppRoutingModule&#45;&gt;AppModule</title>
<path fill="none" stroke="black" d="M624.46,-84.91C624.46,-104.14 624.46,-131.8 624.46,-131.8 624.46,-131.8 512.67,-131.8 512.67,-131.8"/>
<polygon fill="black" stroke="black" points="512.67,-128.3 502.67,-131.8 512.67,-135.3 512.67,-128.3"/>
</g>
<!-- CharactersModule -->
<g id="node6" class="node">
<title>CharactersModule</title>
<polygon fill="#8dd3c7" stroke="black" points="520.9,-84.8 517.9,-88.8 496.9,-88.8 493.9,-84.8 401.1,-84.8 401.1,-48.8 520.9,-48.8 520.9,-84.8"/>
<text text-anchor="middle" x="461" y="-62.6" font-family="Times,serif" font-size="14.00">CharactersModule</text>
</g>
<!-- CharactersModule&#45;&gt;AppModule -->
<g id="edge6" class="edge">
<title>CharactersModule&#45;&gt;AppModule</title>
<path fill="none" stroke="black" d="M461,-84.91C461,-84.91 461,-103.79 461,-103.79"/>
<polygon fill="black" stroke="black" points="457.5,-103.79 461,-113.79 464.5,-103.79 457.5,-103.79"/>
</g>
<!-- TeamsModule -->
<g id="node7" class="node">
<title>TeamsModule</title>
<polygon fill="#8dd3c7" stroke="black" points="383.37,-84.8 380.37,-88.8 359.37,-88.8 356.37,-84.8 286.63,-84.8 286.63,-48.8 383.37,-48.8 383.37,-84.8"/>
<text text-anchor="middle" x="335" y="-62.6" font-family="Times,serif" font-size="14.00">TeamsModule</text>
</g>
<!-- TeamsModule&#45;&gt;AppModule -->
<g id="edge7" class="edge">
<title>TeamsModule&#45;&gt;AppModule</title>
<path fill="none" stroke="black" d="M335,-84.83C335,-101.2 335,-122.8 335,-122.8 335,-122.8 409.04,-122.8 409.04,-122.8"/>
<polygon fill="black" stroke="black" points="409.04,-126.3 419.04,-122.8 409.04,-119.3 409.04,-126.3"/>
</g>
</g>
</svg>
