<?xml version="1.0" encoding="UTF-8" standalone="no"?>
<!DOCTYPE svg PUBLIC "-//W3C//DTD SVG 1.1//EN"
 "http://www.w3.org/Graphics/SVG/1.1/DTD/svg11.dtd">
<!-- Generated by graphviz version 2.47.3 (20210619.1520)
 -->
<!-- Title: dependencies Pages: 1 -->
<svg width="699pt" height="247pt"
 viewBox="0.00 0.00 699.00 246.80" xmlns="http://www.w3.org/2000/svg" xmlns:xlink="http://www.w3.org/1999/xlink">
<g id="graph0" class="graph" transform="scale(1 1) rotate(0) translate(4 242.8)">
<title>dependencies</title>
<polygon fill="white" stroke="transparent" points="-4,4 -4,-242.8 695,-242.8 695,4 -4,4"/>
<text text-anchor="middle" x="345.5" y="-8.2" font-family="sans-serif" font-size="14.00">dependencies</text>
<g id="clust1" class="cluster">
<title>cluster_AppModule</title>
<polygon fill="none" stroke="black" stroke-dasharray="1,5" points="8,-32.8 8,-230.8 683,-230.8 683,-32.8 8,-32.8"/>
</g>
<g id="clust5" class="cluster">
<title>cluster_AppModule_imports</title>
<polygon fill="none" stroke="black" points="279,-40.8 279,-92.8 675,-92.8 675,-40.8 279,-40.8"/>
</g>
<g id="clust7" class="cluster">
<title>cluster_AppModule_bootstrap</title>
<polygon fill="none" stroke="black" points="336,-170.8 336,-222.8 460,-222.8 460,-170.8 336,-170.8"/>
</g>
<g id="clust2" class="cluster">
<title>cluster_AppModule_declarations</title>
<polygon fill="none" stroke="black" points="16,-40.8 16,-92.8 271,-92.8 271,-40.8 16,-40.8"/>
</g>
<!-- AppComponent -->
<g id="node1" class="node">
<title>AppComponent</title>
<polygon fill="#ffffb3" stroke="black" points="262.94,-84.8 157.06,-84.8 157.06,-48.8 262.94,-48.8 262.94,-84.8"/>
<text text-anchor="middle" x="210" y="-62.6" font-family="Times,serif" font-size="14.00">AppComponent</text>
</g>
<!-- AppModule -->
<g id="node3" class="node">
<title>AppModule</title>
<polygon fill="#8dd3c7" stroke="black" points="439.66,-149.8 436.66,-153.8 415.66,-153.8 412.66,-149.8 356.34,-149.8 356.34,-113.8 439.66,-113.8 439.66,-149.8"/>
<text text-anchor="middle" x="398" y="-127.6" font-family="Times,serif" font-size="14.00">AppModule</text>
</g>
<!-- AppComponent&#45;&gt;AppModule -->
<g id="edge1" class="edge">
<title>AppComponent&#45;&gt;AppModule</title>
<path fill="none" stroke="black" d="M210,-84.82C210,-102.17 210,-125.8 210,-125.8 210,-125.8 346.28,-125.8 346.28,-125.8"/>
<polygon fill="black" stroke="black" points="346.28,-129.3 356.28,-125.8 346.28,-122.3 346.28,-129.3"/>
</g>
<!-- HomeComponent -->
<g id="node2" class="node">
<title>HomeComponent</title>
<polygon fill="#ffffb3" stroke="black" points="139.55,-84.8 24.45,-84.8 24.45,-48.8 139.55,-48.8 139.55,-84.8"/>
<text text-anchor="middle" x="82" y="-62.6" font-family="Times,serif" font-size="14.00">HomeComponent</text>
</g>
<!-- HomeComponent&#45;&gt;AppModule -->
<g id="edge2" class="edge">
<title>HomeComponent&#45;&gt;AppModule</title>
<path fill="none" stroke="black" d="M82,-85.08C82,-106.12 82,-137.8 82,-137.8 82,-137.8 346.04,-137.8 346.04,-137.8"/>
<polygon fill="black" stroke="black" points="346.04,-141.3 356.04,-137.8 346.04,-134.3 346.04,-141.3"/>
</g>
<!-- AppComponent  -->
<g id="node7" class="node">
<title>AppComponent </title>
<polygon fill="#80b1d3" stroke="black" points="452.44,-214.8 343.56,-214.8 343.56,-178.8 452.44,-178.8 452.44,-214.8"/>
<text text-anchor="middle" x="398" y="-192.6" font-family="Times,serif" font-size="14.00">AppComponent </text>
</g>
<!-- AppModule&#45;&gt;AppComponent  -->
<g id="edge7" class="edge">
<title>AppModule&#45;&gt;AppComponent </title>
<path fill="none" stroke="black" stroke-dasharray="1,5" d="M398,-149.91C398,-149.91 398,-168.79 398,-168.79"/>
<polygon fill="black" stroke="black" points="394.5,-168.79 398,-178.79 401.5,-168.79 394.5,-168.79"/>
</g>
<!-- AppRoutingModule -->
<g id="node4" class="node">
<title>AppRoutingModule</title>
<polygon fill="#8dd3c7" stroke="black" points="667.27,-84.8 664.27,-88.8 643.27,-88.8 640.27,-84.8 538.73,-84.8 538.73,-48.8 667.27,-48.8 667.27,-84.8"/>
<text text-anchor="middle" x="603" y="-62.6" font-family="Times,serif" font-size="14.00">AppRoutingModule</text>
</g>
<!-- AppRoutingModule&#45;&gt;AppModule -->
<g id="edge3" class="edge">
<title>AppRoutingModule&#45;&gt;AppModule</title>
<path fill="none" stroke="black" d="M581.54,-84.82C581.54,-102.17 581.54,-125.8 581.54,-125.8 581.54,-125.8 450.11,-125.8 450.11,-125.8"/>
<polygon fill="black" stroke="black" points="450.11,-122.3 440.11,-125.8 450.11,-129.3 450.11,-122.3"/>
</g>
<!-- AppRoutingModule&#45;&gt;AppModule -->
<g id="edge4" class="edge">
<title>AppRoutingModule&#45;&gt;AppModule</title>
<path fill="none" stroke="black" d="M624.46,-85.08C624.46,-106.12 624.46,-137.8 624.46,-137.8 624.46,-137.8 449.8,-137.8 449.8,-137.8"/>
<polygon fill="black" stroke="black" points="449.8,-134.3 439.8,-137.8 449.8,-141.3 449.8,-134.3"/>
</g>
<!-- CharactersModule -->
<g id="node5" class="node">
<title>CharactersModule</title>
<polygon fill="#8dd3c7" stroke="black" points="520.9,-84.8 517.9,-88.8 496.9,-88.8 493.9,-84.8 401.1,-84.8 401.1,-48.8 520.9,-48.8 520.9,-84.8"/>
<text text-anchor="middle" x="461" y="-62.6" font-family="Times,serif" font-size="14.00">CharactersModule</text>
</g>
<!-- CharactersModule&#45;&gt;AppModule -->
<g id="edge5" class="edge">
<title>CharactersModule&#45;&gt;AppModule</title>
<path fill="none" stroke="black" d="M420.56,-84.91C420.56,-84.91 420.56,-103.79 420.56,-103.79"/>
<polygon fill="black" stroke="black" points="417.06,-103.79 420.56,-113.79 424.06,-103.79 417.06,-103.79"/>
</g>
<!-- TeamsModule -->
<g id="node6" class="node">
<title>TeamsModule</title>
<polygon fill="#8dd3c7" stroke="black" points="383.37,-84.8 380.37,-88.8 359.37,-88.8 356.37,-84.8 286.63,-84.8 286.63,-48.8 383.37,-48.8 383.37,-84.8"/>
<text text-anchor="middle" x="335" y="-62.6" font-family="Times,serif" font-size="14.00">TeamsModule</text>
</g>
<!-- TeamsModule&#45;&gt;AppModule -->
<g id="edge6" class="edge">
<title>TeamsModule&#45;&gt;AppModule</title>
<path fill="none" stroke="black" d="M369.8,-84.91C369.8,-84.91 369.8,-103.79 369.8,-103.79"/>
<polygon fill="black" stroke="black" points="366.3,-103.79 369.8,-113.79 373.3,-103.79 366.3,-103.79"/>
</g>
</g>
</svg>
