<?xml version="1.0" encoding="UTF-8" standalone="no"?>
<!DOCTYPE svg PUBLIC "-//W3C//DTD SVG 1.1//EN"
 "http://www.w3.org/Graphics/SVG/1.1/DTD/svg11.dtd">
<!-- Generated by graphviz version 2.47.3 (20210619.1520)
 -->
<!-- Title: dependencies Pages: 1 -->
<svg width="1255pt" height="247pt"
 viewBox="0.00 0.00 1255.00 246.80" xmlns="http://www.w3.org/2000/svg" xmlns:xlink="http://www.w3.org/1999/xlink">
<g id="graph0" class="graph" transform="scale(1 1) rotate(0) translate(4 242.8)">
<title>dependencies</title>
<polygon fill="white" stroke="transparent" points="-4,4 -4,-242.8 1251,-242.8 1251,4 -4,4"/>
<text text-anchor="middle" x="623.5" y="-8.2" font-family="sans-serif" font-size="14.00">dependencies</text>
<g id="clust1" class="cluster">
<title>cluster_AppModule</title>
<polygon fill="none" stroke="black" stroke-dasharray="1,5" points="8,-32.8 8,-230.8 1239,-230.8 1239,-32.8 8,-32.8"/>
</g>
<g id="clust2" class="cluster">
<title>cluster_AppModule_declarations</title>
<polygon fill="none" stroke="black" points="168,-40.8 168,-92.8 1231,-92.8 1231,-40.8 168,-40.8"/>
</g>
<g id="clust10" class="cluster">
<title>cluster_AppModule_imports</title>
<polygon fill="none" stroke="black" points="16,-40.8 16,-92.8 160,-92.8 160,-40.8 16,-40.8"/>
</g>
<g id="clust12" class="cluster">
<title>cluster_AppModule_bootstrap</title>
<polygon fill="none" stroke="black" points="561,-170.8 561,-222.8 685,-222.8 685,-170.8 561,-170.8"/>
</g>
<!-- AppComponent -->
<g id="node1" class="node">
<title>AppComponent</title>
<polygon fill="#ffffb3" stroke="black" points="1222.94,-84.8 1117.06,-84.8 1117.06,-48.8 1222.94,-48.8 1222.94,-84.8"/>
<text text-anchor="middle" x="1170" y="-62.6" font-family="Times,serif" font-size="14.00">AppComponent</text>
</g>
<!-- AppModule -->
<g id="node8" class="node">
<title>AppModule</title>
<polygon fill="#8dd3c7" stroke="black" points="664.66,-149.8 661.66,-153.8 640.66,-153.8 637.66,-149.8 581.34,-149.8 581.34,-113.8 664.66,-113.8 664.66,-149.8"/>
<text text-anchor="middle" x="623" y="-127.6" font-family="Times,serif" font-size="14.00">AppModule</text>
</g>
<!-- AppComponent&#45;&gt;AppModule -->
<g id="edge1" class="edge">
<title>AppComponent&#45;&gt;AppModule</title>
<path fill="none" stroke="black" d="M1170,-85.09C1170,-107.01 1170,-140.8 1170,-140.8 1170,-140.8 675.01,-140.8 675.01,-140.8"/>
<polygon fill="black" stroke="black" points="675.01,-137.3 665.01,-140.8 675.01,-144.3 675.01,-137.3"/>
</g>
<!-- ArtiBuildComponent -->
<g id="node2" class="node">
<title>ArtiBuildComponent</title>
<polygon fill="#ffffb3" stroke="black" points="1099.5,-84.8 964.5,-84.8 964.5,-48.8 1099.5,-48.8 1099.5,-84.8"/>
<text text-anchor="middle" x="1032" y="-62.6" font-family="Times,serif" font-size="14.00">ArtiBuildComponent</text>
</g>
<!-- ArtiBuildComponent&#45;&gt;AppModule -->
<g id="edge2" class="edge">
<title>ArtiBuildComponent&#45;&gt;AppModule</title>
<path fill="none" stroke="black" d="M1032,-84.91C1032,-104.14 1032,-131.8 1032,-131.8 1032,-131.8 674.85,-131.8 674.85,-131.8"/>
<polygon fill="black" stroke="black" points="674.85,-128.3 664.85,-131.8 674.85,-135.3 674.85,-128.3"/>
</g>
<!-- BuildCardComponent -->
<g id="node3" class="node">
<title>BuildCardComponent</title>
<polygon fill="#ffffb3" stroke="black" points="946.66,-84.8 807.34,-84.8 807.34,-48.8 946.66,-48.8 946.66,-84.8"/>
<text text-anchor="middle" x="877" y="-62.6" font-family="Times,serif" font-size="14.00">BuildCardComponent</text>
</g>
<!-- BuildCardComponent&#45;&gt;AppModule -->
<g id="edge3" class="edge">
<title>BuildCardComponent&#45;&gt;AppModule</title>
<path fill="none" stroke="black" d="M877,-84.83C877,-101.2 877,-122.8 877,-122.8 877,-122.8 674.66,-122.8 674.66,-122.8"/>
<polygon fill="black" stroke="black" points="674.66,-119.3 664.66,-122.8 674.66,-126.3 674.66,-119.3"/>
</g>
<!-- CharacterCardComponent -->
<g id="node4" class="node">
<title>CharacterCardComponent</title>
<polygon fill="#ffffb3" stroke="black" points="789.45,-84.8 626.55,-84.8 626.55,-48.8 789.45,-48.8 789.45,-84.8"/>
<text text-anchor="middle" x="708" y="-62.6" font-family="Times,serif" font-size="14.00">CharacterCardComponent</text>
</g>
<!-- CharacterCardComponent&#45;&gt;AppModule -->
<g id="edge4" class="edge">
<title>CharacterCardComponent&#45;&gt;AppModule</title>
<path fill="none" stroke="black" d="M645.68,-84.91C645.68,-84.91 645.68,-103.79 645.68,-103.79"/>
<polygon fill="black" stroke="black" points="642.18,-103.79 645.68,-113.79 649.18,-103.79 642.18,-103.79"/>
</g>
<!-- CharactersComponent -->
<g id="node5" class="node">
<title>CharactersComponent</title>
<polygon fill="#ffffb3" stroke="black" points="608.68,-84.8 467.32,-84.8 467.32,-48.8 608.68,-48.8 608.68,-84.8"/>
<text text-anchor="middle" x="538" y="-62.6" font-family="Times,serif" font-size="14.00">CharactersComponent</text>
</g>
<!-- CharactersComponent&#45;&gt;AppModule -->
<g id="edge5" class="edge">
<title>CharactersComponent&#45;&gt;AppModule</title>
<path fill="none" stroke="black" d="M594.88,-84.91C594.88,-84.91 594.88,-103.79 594.88,-103.79"/>
<polygon fill="black" stroke="black" points="591.38,-103.79 594.88,-113.79 598.38,-103.79 591.38,-103.79"/>
</g>
<!-- HomeComponent -->
<g id="node6" class="node">
<title>HomeComponent</title>
<polygon fill="#ffffb3" stroke="black" points="449.55,-84.8 334.45,-84.8 334.45,-48.8 449.55,-48.8 449.55,-84.8"/>
<text text-anchor="middle" x="392" y="-62.6" font-family="Times,serif" font-size="14.00">HomeComponent</text>
</g>
<!-- HomeComponent&#45;&gt;AppModule -->
<g id="edge6" class="edge">
<title>HomeComponent&#45;&gt;AppModule</title>
<path fill="none" stroke="black" d="M392,-84.83C392,-101.2 392,-122.8 392,-122.8 392,-122.8 571.17,-122.8 571.17,-122.8"/>
<polygon fill="black" stroke="black" points="571.17,-126.3 581.17,-122.8 571.17,-119.3 571.17,-126.3"/>
</g>
<!-- TeamCardComponent -->
<g id="node7" class="node">
<title>TeamCardComponent</title>
<polygon fill="#ffffb3" stroke="black" points="316.42,-84.8 175.58,-84.8 175.58,-48.8 316.42,-48.8 316.42,-84.8"/>
<text text-anchor="middle" x="246" y="-62.6" font-family="Times,serif" font-size="14.00">TeamCardComponent</text>
</g>
<!-- TeamCardComponent&#45;&gt;AppModule -->
<g id="edge7" class="edge">
<title>TeamCardComponent&#45;&gt;AppModule</title>
<path fill="none" stroke="black" d="M246,-84.91C246,-104.14 246,-131.8 246,-131.8 246,-131.8 571.21,-131.8 571.21,-131.8"/>
<polygon fill="black" stroke="black" points="571.21,-135.3 581.21,-131.8 571.21,-128.3 571.21,-135.3"/>
</g>
<!-- AppComponent  -->
<g id="node10" class="node">
<title>AppComponent </title>
<polygon fill="#80b1d3" stroke="black" points="677.44,-214.8 568.56,-214.8 568.56,-178.8 677.44,-178.8 677.44,-214.8"/>
<text text-anchor="middle" x="623" y="-192.6" font-family="Times,serif" font-size="14.00">AppComponent </text>
</g>
<!-- AppModule&#45;&gt;AppComponent  -->
<g id="edge9" class="edge">
<title>AppModule&#45;&gt;AppComponent </title>
<path fill="none" stroke="black" stroke-dasharray="1,5" d="M623,-149.91C623,-149.91 623,-168.79 623,-168.79"/>
<polygon fill="black" stroke="black" points="619.5,-168.79 623,-178.79 626.5,-168.79 619.5,-168.79"/>
</g>
<!-- AppRoutingModule -->
<g id="node9" class="node">
<title>AppRoutingModule</title>
<polygon fill="#8dd3c7" stroke="black" points="152.27,-84.8 149.27,-88.8 128.27,-88.8 125.27,-84.8 23.73,-84.8 23.73,-48.8 152.27,-48.8 152.27,-84.8"/>
<text text-anchor="middle" x="88" y="-62.6" font-family="Times,serif" font-size="14.00">AppRoutingModule</text>
</g>
<!-- AppRoutingModule&#45;&gt;AppModule -->
<g id="edge8" class="edge">
<title>AppRoutingModule&#45;&gt;AppModule</title>
<path fill="none" stroke="black" d="M88,-85.09C88,-107.01 88,-140.8 88,-140.8 88,-140.8 571.02,-140.8 571.02,-140.8"/>
<polygon fill="black" stroke="black" points="571.02,-144.3 581.02,-140.8 571.02,-137.3 571.02,-144.3"/>
</g>
</g>
</svg>
